{
	"asset":{
		"generator":"Khronos glTF Blender I/O v3.6.27",
		"version":"2.0"
	},
	"extensionsUsed":[
		"KHR_lights_punctual"
	],
	"extensionsRequired":[
		"KHR_lights_punctual"
	],
	"extensions":{
		"KHR_lights_punctual":{
			"lights":[
				{
					"color":[
						1,
						1,
						1
					],
					"intensity":8152.711959882338,
					"spot":{
						"innerConeAngle":0,
						"outerConeAngle":0.4337143301963806
					},
					"type":"spot",
					"name":"Spot"
				},
				{
					"color":[
						1,
						1,
						1
					],
					"intensity":3415,
					"type":"directional",
					"name":"Sun"
				}
			]
		}
	},
	"scene":0,
	"scenes":[
		{
			"extras":{
				"gaf_props":{
					"IsShowingRadius":0,
					"IsShowingLabel":0,
					"hdri_handler_enabled":1,
					"OldWorldSettings":"World Output",
					"hdri_variation":0,
					"FileNotFoundError":0,
					"hdri":41,
					"hdri_rotation":-48.567047119140625,
					"ShowProgress":0,
					"Progress":0.0,
					"ProgressText":"Generating thumbnail: 261/445",
					"ProgressBarText":"58%",
					"hdri_search":"medium contrast",
					"Lights":"[['Area', None, None], ['Spot', None, None], ['Spot.001', None, None], ['Sun', None, None]]",
					"LightsHiddenRecord":"[['Area', False, False], ['Spot', False, False], ['Spot.001', False, False], ['Sun', False, False], ['WorldEnviroLight', True, False]]",
					"WorldVis":1,
					"WorldReflOnly":0,
					"hdri_saturation":0.30000001192092896,
					"hdri_brightness":-1.5,
					"hdri_warmth":1.0,
					"hdri_show_tags_ui":0,
					"ShowHDRIHaven":1,
					"SoloActive":"",
					"MoreExpand":"_Light:_(Sun)_",
					"hdri_advanced":1,
					"hdri_horz_shift":0.0,
					"hdri_horz_exp":0.0,
					"hdri_clamp":0.0,
					"hdri_contrast":1.100000023841858
				},
				"BakeTool_Jobs":{
					"is_baking":0
				},
				"collection_manager":{
					"update_header":[
						{
							"name":"updated",
							"last_name":"updated"
						}
					],
					"qcd_slots_blend_data":"{'1': 'Collection'}\nset()"
				},
				"NWBusyDrawing":"",
				"NWLazySource":"Viewer",
				"NWLazyTarget":"Viewer",
				"mfp_props":{}
			},
			"name":"Scene",
			"nodes":[
				3,
				4
			]
		}
	],
	"nodes":[
		{
			"camera":0,
			"name":"Camera",
			"scale":[
				1.0032176971435547,
				1.0003294944763184,
				1.0032174587249756
			],
			"translation":[
				0,
				0,
				5.596534252166748
			]
		},
		{
			"extensions":{
				"KHR_lights_punctual":{
					"light":0
				}
			},
			"name":"Spot",
			"rotation":[
				0.41876593232154846,
				-0.5574960708618164,
				-0.24704667925834656,
				0.6729051470756531
			],
			"scale":[
				0.3063530921936035,
				0.3066721558570862,
				0.3068448007106781
			],
			"translation":[
				-2.714195966720581,
				-0.8125008940696716,
				0.08077143877744675
			]
		},
		{
			"extensions":{
				"KHR_lights_punctual":{
					"light":1
				}
			},
			"name":"Sun",
			"rotation":[
				0.23683686554431915,
				0.5677512288093567,
				0.7373448610305786,
				0.27908673882484436
			],
			"scale":[
				1.0018810033798218,
				1.00310218334198,
				1.001783847808838
			],
			"translation":[
				2.283841609954834,
				2.4098973274230957,
				0.8338965177536011
			]
		},
		{
			"children":[
				0,
				1,
				2
			],
			"mesh":0,
			"name":"Sphere"
		},
		{
			"mesh":1,
			"name":"Plane"
		}
	],
	"cameras":[
		{
			"name":"Camera",
			"perspective":{
				"aspectRatio":1,
				"yfov":0.4173635244369507,
				"zfar":1000,
				"znear":0.10000000149011612
			},
			"type":"perspective"
		}
	],
	"materials":[
		{
			"doubleSided":true,
			"name":"forrest_ground_01",
			"pbrMetallicRoughness":{
				"metallicFactor":0
			}
		}
	],
	"meshes":[
		{
			"name":"Sphere",
			"primitives":[
				{
					"attributes":{
						"POSITION":0,
						"NORMAL":1,
						"TEXCOORD_0":2,
						"TANGENT":3
					},
					"indices":4,
					"material":0
				}
			]
		},
		{
			"name":"Plane",
			"primitives":[
				{
					"attributes":{
						"POSITION":5,
						"NORMAL":6,
						"TEXCOORD_0":7,
						"TANGENT":8
					},
					"indices":9,
					"material":0
				}
			]
		}
	],
	"accessors":[
		{
			"bufferView":0,
			"componentType":5126,
			"count":9086,
			"max":[
				1.000000238418579,
				1.000002384185791,
				1.0000005960464478
			],
			"min":[
				-0.9999998211860657,
				-1.000002384185791,
				-0.9999995231628418
			],
			"type":"VEC3"
		},
		{
			"bufferView":1,
			"componentType":5126,
			"count":9086,
			"type":"VEC3"
		},
		{
			"bufferView":2,
			"componentType":5126,
			"count":9086,
			"type":"VEC2"
		},
		{
			"bufferView":3,
			"componentType":5126,
			"count":9086,
			"type":"VEC4"
		},
		{
			"bufferView":4,
			"componentType":5123,
			"count":48384,
			"type":"SCALAR"
		},
		{
			"bufferView":5,
			"componentType":5126,
			"count":4225,
			"max":[
				1,
				0,
				1
			],
			"min":[
				-1,
				0,
				-1
			],
			"type":"VEC3"
		},
		{
			"bufferView":6,
			"componentType":5126,
			"count":4225,
			"type":"VEC3"
		},
		{
			"bufferView":7,
			"componentType":5126,
			"count":4225,
			"type":"VEC2"
		},
		{
			"bufferView":8,
			"componentType":5126,
			"count":4225,
			"type":"VEC4"
		},
		{
			"bufferView":9,
			"componentType":5123,
			"count":24576,
			"type":"SCALAR"
		}
	],
	"bufferViews":[
		{
			"buffer":0,
			"byteLength":109032,
			"byteOffset":0,
			"target":34962
		},
		{
			"buffer":0,
			"byteLength":109032,
			"byteOffset":109032,
			"target":34962
		},
		{
			"buffer":0,
			"byteLength":72688,
			"byteOffset":218064,
			"target":34962
		},
		{
			"buffer":0,
			"byteLength":145376,
			"byteOffset":290752,
			"target":34962
		},
		{
			"buffer":0,
			"byteLength":96768,
			"byteOffset":436128,
			"target":34963
		},
		{
			"buffer":0,
			"byteLength":50700,
			"byteOffset":532896,
			"target":34962
		},
		{
			"buffer":0,
			"byteLength":50700,
			"byteOffset":583596,
			"target":34962
		},
		{
			"buffer":0,
			"byteLength":33800,
			"byteOffset":634296,
			"target":34962
		},
		{
			"buffer":0,
			"byteLength":67600,
			"byteOffset":668096,
			"target":34962
		},
		{
			"buffer":0,
			"byteLength":49152,
			"byteOffset":735696,
			"target":34963
		}
	],
	"buffers":[
		{
			"byteLength":784848,
			"uri":"forrest_ground_01_1k-37ffbe995e6dd9a11022a3b9e9293f25.bin"
		}
	]
}
