{
	"asset":{
		"generator":"Khronos glTF Blender I/O v3.6.27",
		"version":"2.0"
	},
	"scene":0,
	"scenes":[
		{
			"name":"Scene",
			"nodes":[
				0,
				1,
				2
			]
		}
	],
	"nodes":[
		{
			"mesh":0,
			"name":"Cylinder",
			"translation":[
				0,
				1.0005496740341187,
				0
			]
		},
		{
			"mesh":1,
			"name":"Sphere",
			"scale":[
				5.145044326782227,
				5.145044326782227,
				5.145044326782227
			],
			"translation":[
				-3.1085400581359863,
				24.41282844543457,
				0.2988114356994629
			]
		},
		{
			"mesh":2,
			"name":"Plane"
		}
	],
	"meshes":[
		{
			"name":"Cylinder.001",
			"primitives":[
				{
					"attributes":{
						"POSITION":0,
						"NORMAL":1,
						"TEXCOORD_0":2
					},
					"indices":3
				}
			]
		},
		{
			"name":"Sphere.003",
			"primitives":[
				{
					"attributes":{
						"POSITION":4,
						"NORMAL":5,
						"TEXCOORD_0":6
					},
					"indices":7
				}
			]
		},
		{
			"name":"Plane.002",
			"primitives":[
				{
					"attributes":{
						"POSITION":8,
						"NORMAL":9,
						"TEXCOORD_0":10
					},
					"indices":11
				}
			]
		}
	],
	"accessors":[
		{
			"bufferView":0,
			"componentType":5126,
			"count":487,
			"max":[
				3.423339366912842,
				33.084407806396484,
				3.4721813201904297
			],
			"min":[
				-3.6718175411224365,
				-1,
				-11.065863609313965
			],
			"type":"VEC3"
		},
		{
			"bufferView":1,
			"componentType":5126,
			"count":487,
			"type":"VEC3"
		},
		{
			"bufferView":2,
			"componentType":5126,
			"count":487,
			"type":"VEC2"
		},
		{
			"bufferView":3,
			"componentType":5123,
			"count":1305,
			"type":"SCALAR"
		},
		{
			"bufferView":4,
			"componentType":5126,
			"count":528,
			"max":[
				2.3393616676330566,
				2.894681930541992,
				2.335719585418701
			],
			"min":[
				-1.102872371673584,
				-1.080859661102295,
				-3.4578657150268555
			],
			"type":"VEC3"
		},
		{
			"bufferView":5,
			"componentType":5126,
			"count":528,
			"type":"VEC3"
		},
		{
			"bufferView":6,
			"componentType":5126,
			"count":528,
			"type":"VEC2"
		},
		{
			"bufferView":7,
			"componentType":5123,
			"count":720,
			"type":"SCALAR"
		},
		{
			"bufferView":8,
			"componentType":5126,
			"count":12,
			"max":[
				1,
				1,
				1
			],
			"min":[
				-1,
				-1,
				-1
			],
			"type":"VEC3"
		},
		{
			"bufferView":9,
			"componentType":5126,
			"count":12,
			"type":"VEC3"
		},
		{
			"bufferView":10,
			"componentType":5126,
			"count":12,
			"type":"VEC2"
		},
		{
			"bufferView":11,
			"componentType":5123,
			"count":18,
			"type":"SCALAR"
		}
	],
	"bufferViews":[
		{
			"buffer":0,
			"byteLength":5844,
			"byteOffset":0,
			"target":34962
		},
		{
			"buffer":0,
			"byteLength":5844,
			"byteOffset":5844,
			"target":34962
		},
		{
			"buffer":0,
			"byteLength":3896,
			"byteOffset":11688,
			"target":34962
		},
		{
			"buffer":0,
			"byteLength":2610,
			"byteOffset":15584,
			"target":34963
		},
		{
			"buffer":0,
			"byteLength":6336,
			"byteOffset":18196,
			"target":34962
		},
		{
			"buffer":0,
			"byteLength":6336,
			"byteOffset":24532,
			"target":34962
		},
		{
			"buffer":0,
			"byteLength":4224,
			"byteOffset":30868,
			"target":34962
		},
		{
			"buffer":0,
			"byteLength":1440,
			"byteOffset":35092,
			"target":34963
		},
		{
			"buffer":0,
			"byteLength":144,
			"byteOffset":36532,
			"target":34962
		},
		{
			"buffer":0,
			"byteLength":144,
			"byteOffset":36676,
			"target":34962
		},
		{
			"buffer":0,
			"byteLength":96,
			"byteOffset":36820,
			"target":34962
		},
		{
			"buffer":0,
			"byteLength":36,
			"byteOffset":36916,
			"target":34963
		}
	],
	"buffers":[
		{
			"byteLength":36952,
			"uri":"data:application/octet-stream;base64,"
		}
	]
}
